<?xml version="1.0" encoding="UTF-8"?>
<!DOCTYPE svg PUBLIC "-//W3C//DTD SVG 1.1//EN" "http://www.w3.org/Graphics/SVG/1.1/DTD/svg11.dtd">
<svg version="1.2" width="370.68mm" height="132.56mm" viewBox="0 0 37068 13256" preserveAspectRatio="xMidYMid" fill-rule="evenodd" stroke-width="28.222" stroke-linejoin="round" xmlns="http://www.w3.org/2000/svg" xmlns:ooo="http://xml.openoffice.org/svg/export" xmlns:xlink="http://www.w3.org/1999/xlink" xmlns:presentation="http://sun.com/xmlns/staroffice/presentation" xmlns:smil="http://www.w3.org/2001/SMIL20/" xmlns:anim="urn:oasis:names:tc:opendocument:xmlns:animation:1.0" xml:space="preserve">
 <defs class="ClipPathGroup">
  <clipPath id="presentation_clip_path" clipPathUnits="userSpaceOnUse">
   <rect x="0" y="0" width="37068" height="13256"/>
  </clipPath>
  <clipPath id="presentation_clip_path_shrink" clipPathUnits="userSpaceOnUse">
   <rect x="37" y="13" width="36994" height="13230"/>
  </clipPath>
 </defs>
 <defs class="TextShapeIndex">
  <g ooo:slide="id1" ooo:id-list="id3"/>
 </defs>
 <defs class="EmbeddedBulletChars">
  <g id="bullet-char-template-57356" transform="scale(0.00048828125,-0.00048828125)">
   <path d="M 580,1141 L 1163,571 580,0 -4,571 580,1141 Z"/>
  </g>
  <g id="bullet-char-template-57354" transform="scale(0.00048828125,-0.00048828125)">
   <path d="M 8,1128 L 1137,1128 1137,0 8,0 8,1128 Z"/>
  </g>
  <g id="bullet-char-template-10146" transform="scale(0.00048828125,-0.00048828125)">
   <path d="M 174,0 L 602,739 174,1481 1456,739 174,0 Z M 1358,739 L 309,1346 659,739 1358,739 Z"/>
  </g>
  <g id="bullet-char-template-10132" transform="scale(0.00048828125,-0.00048828125)">
   <path d="M 2015,739 L 1276,0 717,0 1260,543 174,543 174,936 1260,936 717,1481 1274,1481 2015,739 Z"/>
  </g>
  <g id="bullet-char-template-10007" transform="scale(0.00048828125,-0.00048828125)">
   <path d="M 0,-2 C -7,14 -16,27 -25,37 L 356,567 C 262,823 215,952 215,954 215,979 228,992 255,992 264,992 276,990 289,987 310,991 331,999 354,1012 L 381,999 492,748 772,1049 836,1024 860,1049 C 881,1039 901,1025 922,1006 886,937 835,863 770,784 769,783 710,716 594,584 L 774,223 C 774,196 753,168 711,139 L 727,119 C 717,90 699,76 672,76 641,76 570,178 457,381 L 164,-76 C 142,-110 111,-127 72,-127 30,-127 9,-110 8,-76 1,-67 -2,-52 -2,-32 -2,-23 -1,-13 0,-2 Z"/>
  </g>
  <g id="bullet-char-template-10004" transform="scale(0.00048828125,-0.00048828125)">
   <path d="M 285,-33 C 182,-33 111,30 74,156 52,228 41,333 41,471 41,549 55,616 82,672 116,743 169,778 240,778 293,778 328,747 346,684 L 369,508 C 377,444 397,411 428,410 L 1163,1116 C 1174,1127 1196,1133 1229,1133 1271,1133 1292,1118 1292,1087 L 1292,965 C 1292,929 1282,901 1262,881 L 442,47 C 390,-6 338,-33 285,-33 Z"/>
  </g>
  <g id="bullet-char-template-9679" transform="scale(0.00048828125,-0.00048828125)">
   <path d="M 813,0 C 632,0 489,54 383,161 276,268 223,411 223,592 223,773 276,916 383,1023 489,1130 632,1184 813,1184 992,1184 1136,1130 1245,1023 1353,916 1407,772 1407,592 1407,412 1353,268 1245,161 1136,54 992,0 813,0 Z"/>
  </g>
  <g id="bullet-char-template-8226" transform="scale(0.00048828125,-0.00048828125)">
   <path d="M 346,457 C 273,457 209,483 155,535 101,586 74,649 74,723 74,796 101,859 155,911 209,963 273,989 346,989 419,989 480,963 531,910 582,859 608,796 608,723 608,648 583,586 532,535 482,483 420,457 346,457 Z"/>
  </g>
  <g id="bullet-char-template-8211" transform="scale(0.00048828125,-0.00048828125)">
   <path d="M -4,459 L 1135,459 1135,606 -4,606 -4,459 Z"/>
  </g>
  <g id="bullet-char-template-61548" transform="scale(0.00048828125,-0.00048828125)">
   <path d="M 173,740 C 173,903 231,1043 346,1159 462,1274 601,1332 765,1332 928,1332 1067,1274 1183,1159 1299,1043 1357,903 1357,740 1357,577 1299,437 1183,322 1067,206 928,148 765,148 601,148 462,206 346,322 231,437 173,577 173,740 Z"/>
  </g>
 </defs>
 <defs class="TextEmbeddedBitmaps"/>
 <g>
  <g id="id2" class="Master_Slide">
   <g id="bg-id2" class="Background"/>
   <g id="bo-id2" class="BackgroundObjects"/>
  </g>
 </g>
 <g class="SlideGroup">
  <g>
   <g id="container-id1">
    <g id="id1" class="Slide" clip-path="url(#presentation_clip_path)">
     <g class="Page">
      <g class="Graphic">
       <g id="id3">
        <rect class="BoundingBox" stroke="none" fill="none" x="0" y="0" width="37068" height="13256"/>
        <path fill="rgb(0,0,0)" fill-opacity="0.298" stroke="rgb(255,255,255)" stroke-opacity="0.298" d="M 15623,11919 C 15623,12065 15512,12189 15269,12316 15025,12442 14722,12533 14300,12606 13878,12679 13464,12713 12977,12713 12490,12713 12076,12679 11655,12606 11233,12533 10930,12442 10686,12316 10443,12189 10332,12065 10332,11919 10332,11773 10443,11649 10686,11522 10930,11396 11233,11305 11655,11232 12076,11158 12490,11125 12977,11125 13464,11125 13878,11158 14300,11232 14722,11305 15025,11396 15269,11522 15512,11649 15623,11773 15623,11919 L 15623,11919 Z"/>
        <path fill="rgb(255,165,0)" stroke="none" d="M 17211,7950 C 17211,8681 17044,9302 16679,9935 16314,10567 15859,11022 15226,11387 14594,11753 13973,11919 13242,11919 12511,11919 11890,11753 11258,11387 10625,11022 10170,10567 9805,9935 9440,9302 9273,8681 9273,7950 9273,7220 9440,6599 9805,5966 10170,5333 10625,4879 11258,4513 11890,4148 12511,3982 13242,3982 13973,3982 14594,4148 15226,4513 15859,4879 16314,5333 16679,5966 17044,6599 17211,7220 17211,7950 L 17211,7950 Z"/>
        <path fill="rgb(255,255,255)" stroke="none" d="M 16152,7157 C 16152,7449 16086,7697 15940,7950 15794,8203 15612,8385 15359,8531 15106,8678 14857,8744 14565,8744 14273,8744 14024,8678 13771,8531 13518,8385 13336,8203 13190,7950 13044,7697 12977,7449 12977,7157 12977,6864 13044,6616 13190,6363 13336,6110 13518,5928 13771,5782 14024,5636 14273,5569 14565,5569 14857,5569 15106,5636 15359,5782 15612,5928 15794,6110 15940,6363 16086,6616 16152,6864 16152,7157 L 16152,7157 Z"/>
        <path fill="rgb(255,255,255)" stroke="none" d="M 14300,7157 C 14300,7449 14234,7697 14088,7950 13941,8203 13760,8385 13507,8531 13253,8678 13005,8744 12713,8744 12421,8744 12172,8678 11919,8531 11666,8385 11484,8203 11338,7950 11192,7697 11125,7449 11125,7157 11125,6864 11192,6616 11338,6363 11484,6110 11666,5928 11919,5782 12172,5636 12421,5569 12713,5569 13005,5569 13253,5636 13507,5782 13760,5928 13941,6110 14088,6363 14234,6616 14300,6864 14300,7157 L 14300,7157 Z"/>
        <path fill="rgb(0,0,0)" stroke="none" d="M 15094,7157 C 15094,7205 15083,7247 15059,7289 15034,7331 15004,7361 14962,7386 14920,7410 14878,7421 14829,7421 14781,7421 14739,7410 14697,7386 14655,7361 14625,7331 14600,7289 14576,7247 14565,7205 14565,7157 14565,7108 14576,7067 14600,7024 14625,6982 14655,6952 14697,6928 14739,6903 14781,6892 14829,6892 14878,6892 14920,6903 14962,6928 15004,6952 15034,6982 15059,7024 15083,7067 15094,7108 15094,7157 L 15094,7157 Z"/>
        <path fill="rgb(0,0,0)" stroke="none" d="M 13242,7157 C 13242,7205 13231,7247 13207,7289 13182,7331 13152,7361 13110,7386 13068,7410 13026,7421 12977,7421 12929,7421 12887,7410 12845,7386 12803,7361 12773,7331 12748,7289 12724,7247 12713,7205 12713,7157 12713,7108 12724,7067 12748,7024 12773,6982 12803,6952 12845,6928 12887,6903 12929,6892 12977,6892 13026,6892 13068,6903 13110,6928 13152,6952 13182,6982 13207,7024 13231,7067 13242,7108 13242,7157 L 13242,7157 Z"/>
        <path fill="rgb(0,0,0)" stroke="none" d="M 14036,8744 C 14036,8817 14019,8879 13983,8942 13946,9006 13901,9051 13837,9088 13774,9124 13712,9141 13639,9141 13566,9141 13504,9124 13440,9088 13377,9051 13332,9006 13295,8942 13259,8879 13242,8817 13242,8744 13242,8671 13259,8609 13295,8546 13332,8482 13377,8437 13440,8400 13504,8364 13566,8347 13639,8347 13712,8347 13774,8364 13837,8400 13901,8437 13946,8482 13983,8546 14019,8609 14036,8671 14036,8744 L 14036,8744 Z"/>
        <path fill="rgb(255,0,0)" stroke="none" d="M 14300,10067 C 14300,10140 14267,10202 14194,10265 14121,10329 14030,10374 13903,10411 13777,10447 13653,10464 13507,10464 13360,10464 13236,10447 13110,10411 12983,10374 12892,10329 12819,10265 12746,10202 12713,10140 12713,10067 12713,9994 12746,9932 12819,9868 12892,9805 12983,9760 13110,9723 13236,9687 13360,9670 13507,9670 13653,9670 13777,9687 13903,9723 14030,9760 14121,9805 14194,9868 14267,9932 14300,9994 14300,10067 L 14300,10067 Z"/>
        <path fill="rgb(255,165,0)" stroke="none" d="M 10332,5305 L 10332,4246 12977,5305 10332,5305 Z"/>
        <path fill="rgb(0,0,0)" stroke="none" d="M 10464,5305 L 10464,4458 11125,4723 10464,5305 Z"/>
        <path fill="rgb(255,165,0)" stroke="none" d="M 15888,5305 L 15094,4458 16152,4246 15888,5305 Z"/>
        <path fill="rgb(0,0,0)" stroke="none" d="M 15808,5040 L 15253,4564 15967,4432 15808,5040 Z"/>
        <path fill="rgb(255,165,0)" stroke="none" d="M 10137,9329 C 10087,9466 9940,9545 9668,9581 9396,9616 9080,9598 8659,9522 8238,9447 7837,9337 7379,9170 6922,9003 6544,8830 6173,8618 5801,8405 5548,8216 5362,8013 5177,7811 5115,7657 5165,7519 5215,7382 5361,7303 5634,7268 5906,7232 6222,7250 6643,7326 7064,7401 7465,7512 7922,7678 8380,7845 8758,8018 9129,8231 9501,8444 9754,8633 9940,8835 10125,9037 10187,9192 10137,9329 L 10137,9329 Z"/>
        <path fill="rgb(255,255,255)" stroke="none" d="M 5305,7553 L 6363,7421 6098,8347 5305,7553 Z"/>
        <path fill="rgb(0,0,0)" fill-opacity="0.298" stroke="rgb(255,255,255)" stroke-opacity="0.298" d="M 29117,11919 C 29117,12065 29006,12189 28762,12316 28519,12442 28215,12533 27794,12606 27372,12679 26958,12713 26471,12713 25984,12713 25570,12679 25148,12606 24726,12533 24423,12442 24179,12316 23936,12189 23825,12065 23825,11919 23825,11773 23936,11649 24179,11522 24423,11396 24726,11305 25148,11232 25570,11158 25984,11125 26471,11125 26958,11125 27372,11158 27794,11232 28215,11305 28519,11396 28762,11522 29006,11649 29117,11773 29117,11919 L 29117,11919 Z"/>
        <path fill="rgb(255,255,0)" stroke="none" d="M 30439,7950 C 30439,8681 30273,9302 29908,9935 29542,10567 29088,11022 28455,11387 27822,11753 27201,11919 26471,11919 25740,11919 25119,11753 24486,11387 23854,11022 23399,10567 23034,9935 22669,9302 22502,8681 22502,7950 22502,7220 22669,6599 23034,5966 23399,5333 23854,4879 24486,4513 25119,4148 25740,3982 26471,3982 27201,3982 27822,4148 28455,4513 29088,4879 29542,5333 29908,5966 30273,6599 30439,7220 30439,7950 L 30439,7950 Z"/>
        <path fill="rgb(255,255,255)" stroke="none" d="M 26735,7157 C 26735,7449 26669,7697 26523,7950 26377,8203 26195,8385 25942,8531 25689,8678 25440,8744 25148,8744 24856,8744 24607,8678 24354,8531 24101,8385 23919,8203 23773,7950 23627,7697 23560,7449 23560,7157 23560,6864 23627,6616 23773,6363 23919,6110 24101,5928 24354,5782 24607,5636 24856,5569 25148,5569 25440,5569 25689,5636 25942,5782 26195,5928 26377,6110 26523,6363 26669,6616 26735,6864 26735,7157 L 26735,7157 Z"/>
        <path fill="rgb(255,255,255)" stroke="none" d="M 28587,7157 C 28587,7449 28521,7697 28375,7950 28229,8203 28047,8385 27794,8531 27541,8678 27292,8744 27000,8744 26708,8744 26459,8678 26206,8531 25953,8385 25771,8203 25625,7950 25479,7697 25412,7449 25412,7157 25412,6864 25479,6616 25625,6363 25771,6110 25953,5928 26206,5782 26459,5636 26708,5569 27000,5569 27292,5569 27541,5636 27794,5782 28047,5928 28229,6110 28375,6363 28521,6616 28587,6864 28587,7157 L 28587,7157 Z"/>
        <path fill="rgb(0,0,0)" stroke="none" d="M 26735,7157 C 26735,7205 26724,7247 26700,7289 26676,7331 26645,7361 26603,7386 26561,7410 26519,7421 26471,7421 26422,7421 26381,7410 26338,7386 26296,7361 26266,7331 26242,7289 26217,7247 26206,7205 26206,7157 26206,7108 26217,7067 26242,7024 26266,6982 26296,6952 26338,6928 26381,6903 26422,6892 26471,6892 26519,6892 26561,6903 26603,6928 26645,6952 26676,6982 26700,7024 26724,7067 26735,7108 26735,7157 L 26735,7157 Z"/>
        <path fill="rgb(0,0,0)" stroke="none" d="M 24883,7157 C 24883,7205 24872,7247 24848,7289 24824,7331 24793,7361 24751,7386 24709,7410 24667,7421 24619,7421 24570,7421 24529,7410 24486,7386 24444,7361 24414,7331 24390,7289 24365,7247 24354,7205 24354,7157 24354,7108 24365,7067 24390,7024 24414,6982 24444,6952 24486,6928 24529,6903 24570,6892 24619,6892 24667,6892 24709,6903 24751,6928 24793,6952 24824,6982 24848,7024 24872,7067 24883,7108 24883,7157 L 24883,7157 Z"/>
        <path fill="rgb(255,0,0)" stroke="none" d="M 26338,10067 C 26338,10213 26322,10337 26285,10464 26249,10590 26203,10681 26140,10754 26077,10827 26015,10861 25942,10861 25869,10861 25806,10827 25743,10754 25680,10681 25634,10590 25598,10464 25561,10337 25545,10213 25545,10067 25545,9921 25561,9797 25598,9670 25634,9544 25680,9453 25743,9380 25806,9306 25869,9273 25942,9273 26015,9273 26077,9306 26140,9380 26203,9453 26249,9544 26285,9670 26322,9797 26338,9921 26338,10067 L 26338,10067 Z"/>
       </g>
      </g>
     </g>
    </g>
   </g>
  </g>
 </g>
</svg>